<?xml version="1.0" encoding="utf-8"?>
<!-- Generator: Adobe Illustrator 22.0.1, SVG Export Plug-In . SVG Version: 6.00 Build 0)  -->
<svg version="1.1" id="Laag_1" xmlns="http://www.w3.org/2000/svg" xmlns:xlink="http://www.w3.org/1999/xlink" x="0px" y="0px"
	 viewBox="0 0 40 57.9" style="enable-background:new 0 0 40 57.9;" xml:space="preserve">
<style type="text/css">
	.st0{fill:#FFFFFF;}
</style>
<g>
	<path class="st0" d="M38.9,38.6c0,2.9-0.5,5.6-1.5,8.1c-1.4,3.5-3.6,6.2-6.6,8.1s-6.6,2.9-10.8,2.9c-4.1,0-7.7-1-10.9-3.1
		c-3.1-2.1-5.4-4.9-6.7-8.4c-0.7-1.7-1.1-3.8-1.3-6.4c0-0.9,0.5-1.4,1.4-1.4h8.8c0.9,0,1.4,0.5,1.5,1.4c0.1,1.3,0.4,2.5,0.8,3.6
		c0.5,1.4,1.3,2.5,2.4,3.3c1.1,0.8,2.4,1.2,3.9,1.2c3,0,5.1-1.3,6.3-4c0.8-1.6,1.1-3.5,1.1-5.7c0-2.3-0.4-4.4-1.3-6.3
		c-1.2-2.6-3.3-3.8-6.2-3.8c-1,0-2.2,0.5-3.7,1.5c-0.3,0.2-0.6,0.2-0.8,0.2c-0.4,0-0.8-0.2-1.1-0.6l-4.3-5.8c-0.2-0.3-0.3-0.6-0.3-1
		c0-0.3,0.2-0.7,0.5-1l12.7-11.1c0.2-0.1,0.2-0.2,0.2-0.4C22.8,10,22.7,10,22.4,10H3.6c-0.9,0-1.4-0.5-1.4-1.4V1.5
		c0-0.9,0.5-1.4,1.4-1.4h33.1c0.9,0,1.4,0.5,1.4,1.4v8c0,0.7-0.2,1.2-0.7,1.7l-10.7,9.7c-0.3,0.3-0.2,0.5,0.3,0.7
		c4.7,0.9,8.1,3.7,10.2,8.4C38.3,32.4,38.9,35.3,38.9,38.6z"/>
</g>
</svg>
