<?xml version="1.0" encoding="utf-8"?>
<!-- Generator: Adobe Illustrator 22.0.1, SVG Export Plug-In . SVG Version: 6.00 Build 0)  -->
<svg version="1.1" id="Laag_1" xmlns="http://www.w3.org/2000/svg" xmlns:xlink="http://www.w3.org/1999/xlink" x="0px" y="0px"
	 viewBox="0 0 40 57.9" style="enable-background:new 0 0 40 57.9;" xml:space="preserve">
<style type="text/css">
	.st0{fill:#FFFFFF;}
</style>
<g>
	<path class="st0" d="M17.4,0.4h9.2c0.9,0,1.4,0.5,1.4,1.4v54.4c0,0.9-0.5,1.4-1.4,1.4h-8.7c-0.9,0-1.4-0.5-1.4-1.4V11.7
		c0-0.2-0.1-0.3-0.2-0.4c-0.1-0.1-0.2-0.1-0.4-0.1l-7.2,1.5H8.4c-0.8,0-1.2-0.4-1.2-1.2V5.3c0-0.8,0.4-1.3,1.1-1.6l7.4-2.9
		C16.2,0.6,16.8,0.4,17.4,0.4z"/>
</g>
</svg>
