<?xml version="1.0" encoding="utf-8"?>
<!-- Generator: Adobe Illustrator 22.0.1, SVG Export Plug-In . SVG Version: 6.00 Build 0)  -->
<svg version="1.1" id="Laag_1" xmlns="http://www.w3.org/2000/svg" xmlns:xlink="http://www.w3.org/1999/xlink" x="0px" y="0px"
	 viewBox="0 0 456.9 299.3" style="enable-background:new 0 0 456.9 299.3;" xml:space="preserve">
<style type="text/css">
	.st0{fill:#FFFFFF;}
</style>
<g>
	<g>
		
			<rect x="213.9" y="22" transform="matrix(2.929675e-03 -1 1 2.929675e-03 205.0868 253.4482)" class="st0" width="31.5" height="3.7"/>
	</g>
	<g>
		
			<rect x="162.6" y="25.2" transform="matrix(0.8662 -0.4998 0.4998 0.8662 1.5279 87.6863)" class="st0" width="3.7" height="31.5"/>
	</g>
	<g>
		
			<rect x="114.2" y="74" transform="matrix(0.4883 -0.8727 0.8727 0.4883 -18.9515 147.1885)" class="st0" width="3.7" height="31.5"/>
	</g>
	<g>
		
			<rect x="83.6" y="153.2" transform="matrix(0.9999 -1.692466e-02 1.692466e-02 0.9999 -2.6104 1.7036)" class="st0" width="31.5" height="3.7"/>
	</g>
	<g>
		
			<rect x="101.6" y="217.4" transform="matrix(0.8591 -0.5118 0.5118 0.8591 -95.6797 90.9556)" class="st0" width="31.5" height="3.7"/>
	</g>
	<g>
		
			<rect x="101.6" y="217.4" transform="matrix(0.8591 -0.5118 0.5118 0.8591 -95.6797 90.9556)" class="st0" width="31.5" height="3.7"/>
	</g>
	<g>
		
			<rect x="149.1" y="264.1" transform="matrix(0.4907 -0.8713 0.8713 0.4907 -147.7495 279.141)" class="st0" width="31.5" height="3.7"/>
	</g>
	<g>
		
			<rect x="226.9" y="267.1" transform="matrix(1 -3.152941e-03 3.152941e-03 1 -0.8906 0.7227)" class="st0" width="3.7" height="31.5"/>
	</g>
	<g>
		
			<rect x="292.3" y="249.4" transform="matrix(0.8617 -0.5074 0.5074 0.8617 -93.8587 185.922)" class="st0" width="3.7" height="31.5"/>
	</g>
	<g>
		
			<rect x="339.5" y="201.7" transform="matrix(0.4922 -0.8705 0.8705 0.4922 -15.976 407.5251)" class="st0" width="3.7" height="31.5"/>
	</g>
	<g>
		<rect x="338.1" y="122.3" class="st0" width="31.5" height="3.7"/>
	</g>
	<g>
		
			<rect x="324.7" y="85.9" transform="matrix(0.8603 -0.5097 0.5097 0.8603 2.8247 185.7877)" class="st0" width="31.5" height="3.7"/>
	</g>
	<g>
		
			<rect x="277.1" y="39" transform="matrix(0.492 -0.8706 0.8706 0.492 113.2379 275.7417)" class="st0" width="31.5" height="3.7"/>
	</g>
</g>
<g>
	
		<image style="overflow:visible;opacity:0.25;" width="1886" height="935" xlink:href="38C5B8B5.png"  transform="matrix(0.24 0 0 0.24 7.269 9.2457)">
	</image>
	<g>
		<g>
			<g>
				<path class="st0" d="M67.3,126.4c4.5-10.7,9-20.2,13.4-28.5c4.4-8.3,8.5-15.4,12.2-21.4c3.7-6,7.1-10.8,9.9-14.5
					c2.9-3.7,5-6.3,6.5-7.9c0.2-0.5,0.9-0.8,1.9-1c0.7-0.2,1.4-0.1,2,0.2c2.8,1.7,5.3,4.1,7.4,7.2c1.4,1.8,2,4,1.8,6.6
					c-0.2,2.6-0.7,5.1-1.7,7.4c-2.7,7.2-5.1,14.3-7.3,21.5c-2.2,7.1-4.2,14.3-6,21.5c-0.2,1.1-0.4,2.3-0.7,3.6
					c-0.3,1.3-0.6,2.8-0.9,4.5c4.6-11.5,9.3-22,14.1-31.3c4.8-9.3,9.4-17.3,13.6-24c4.3-6.7,8-12.2,11.3-16.4
					c3.3-4.2,5.6-7.1,7.1-8.6c0.5-0.5,1.1-0.9,1.7-1c0.9-0.2,1.6-0.1,2.2,0.2c1.3,0.8,2.5,1.8,3.8,3.1c1.2,1.3,2.5,2.7,3.6,4.1
					c1.4,1.8,2,4,1.8,6.6c-0.2,2.6-0.7,5.1-1.7,7.4c-6.3,16.9-11.2,33.3-14.8,49.2c-3.6,15.9-5.4,33.4-5.4,52.5
					c-0.2,5.6-0.1,11.4,0.1,17.4c0.2,6,1,11.7,2.3,17.3c-2,0.6-4.1,1.1-6.2,1.4c-2.1,0.3-4-0.1-5.8-1.4c-1.7-1.1-3.1-3-4.1-5.7
					c-1-2.7-1.8-5.6-2.2-8.7c-0.5-3.1-0.8-6.3-0.9-9.5c-0.1-3.2-0.1-5.9-0.1-8.2c-0.1-5,0-9.5,0.2-13.6c0.2-4.1,0.5-8,0.9-11.9
					c0.4-3.8,1-7.7,1.7-11.7c0.7-4,1.5-8.4,2.5-13.1c3-17,7-33.2,12.1-48.6c-10.6,16.5-18.7,33-24.3,49.3
					c-5.6,16.3-9.7,31.1-12.2,44.3c-3,15.4-4.7,30.2-5,44.6c-0.4,1.5-1,2.4-1.7,2.5l-0.2,0c-1.6,0.3-3.2,0.5-4.7,0.5
					c-1.6,0-3-0.5-4.3-1.4c-1.7-1.1-3.1-3-4.1-5.7c-1-2.7-1.8-5.6-2.2-8.7c-0.5-3.1-0.8-6.3-1-9.4c-0.2-3.2-0.2-5.9-0.2-8.2
					c-0.1-5,0-9.5,0.2-13.6c0.2-4.1,0.5-8,0.9-11.9c0.4-3.8,1-7.7,1.7-11.7c0.7-4,1.5-8.4,2.5-13.1c3-17,7-33.2,12.1-48.6
					c-8.4,13-15.4,26.1-20.9,39.4c-5.5,13.3-10,25.8-13.5,37.5c-3.5,11.7-6,22.3-7.7,31.8c-1.7,9.5-2.9,16.9-3.5,22.2l0.2,8.4
					l-0.9,0.2c-2.1,0-3.8-0.1-5.2-0.5c-1.4-0.3-2.4-0.7-3.2-1.2c-1-0.6-1.8-1.3-2.4-2c-2.8-2.9-4.1-9.1-3.9-18.6
					c0.2-9.5,1.3-20.3,3.2-32.6c1.9-12.2,4.4-24.9,7.3-38.1c2.9-13.2,5.8-25,8.6-35.6c-9.6,14.5-17.5,30.2-23.5,47.3
					c-1.9,5.6-3.6,11.3-5.1,17.1c-1.5,5.8-2.6,11.8-3.5,18c-0.4,3-0.8,6.1-1,9.2c-0.3,3.2,0.1,6.1,1.1,8.8c0.4,0.5,0.4,1,0.2,1.3
					c-0.2,0.4-0.4,0.5-0.5,0.6c-1.9,1.4-3.9,2.3-6.1,2.5c-2.1,0.2-4.1-0.3-6-1.5c-3.2-2-5-5.5-5.5-10.4c-0.5-4.9-0.4-9.3,0.2-13.4
					c2.6-16.7,7-32.2,13.4-46.4c6.4-14.2,13.8-27.5,22.3-39.8c2.4-3.6,5-7,7.6-10c1.4-1.8,2.8-3.4,4.2-4.9c1.3-1.5,2.7-3,4.2-4.3
					c2-1.9,3.6-3.6,4.8-5.1c0.1-0.2,0.3-0.4,0.6-0.4c0.3-0.1,0.6-0.2,0.8-0.5c0.3-0.1,0.6-0.1,1-0.2c0.4-0.1,0.7,0,1,0.1
					c1.1,0.4,2.4,1.1,3.9,2c1.5,0.9,3.1,2.2,4.7,3.7c2,2.1,2.9,4.8,2.6,8.2c-0.1,1.7-0.5,3.4-1,5.2c-2.5,9-4.7,17.5-6.7,25.5
					C70.9,111.2,69.1,119,67.3,126.4z"/>
			</g>
			<g>
				<path class="st0" d="M157.5,177.5c-0.4-0.7-0.6-1.5-0.8-2.3c-0.2-0.8-0.3-1.5-0.5-2.1c-0.4-5.3-0.5-12-0.3-20
					c0.2-8,1.5-16.7,4-25.9c0.4-1.5,0.9-3.1,1.3-4.6c0.4-1.5,0.9-3.1,1.3-4.6c0.5-2.2,1.1-3.9,1.7-5c0.4-0.9,0.7-1.4,1.2-1.6
					c0.4-0.2,0.8-0.3,1.1-0.4c0.2,0.2,0.3,0.2,0.5,0.2c1.7,1.1,3.7,2.6,5.9,4.5c2.2,1.9,3.9,3.5,5,4.7c0.5,0.5,0.8,1.1,0.8,1.7
					c0.2,0.4,0.2,0.9-0.1,1.6c-0.3,1.3-0.8,3.3-1.6,6.1c-0.8,2.8-1.5,5.8-2.3,9.2c-0.8,3.4-1.5,7.1-2.2,11c-0.7,4-1.2,7.9-1.4,11.6
					c0,1.1,0.6,0.5,1.8-1.6c1.3-2.1,2.8-5.2,4.7-9.1c1.9-3.9,4-8.5,6.5-13.8c2.4-5.3,4.7-10.4,6.8-15.4l5.5-0.8
					c-2.7,7.2-5.3,14.5-8,21.9c-2.3,6.3-4.8,13-7.5,20.2c-2.7,7.2-5.1,13.7-7.3,19.6l-0.2,0.4c-0.1,0-0.2,0.2-0.2,0.3l-0.4,0.7
					l-0.2,0c-0.5,0.5-1,0.8-1.4,0.8c-0.4,0-0.7,0-1,0.1c-1.1-0.2-2.3-0.5-3.8-0.9c-1.4-0.4-3-0.9-4.7-1.4c-0.2-0.2-0.3-0.2-0.5-0.2
					C159.8,181.6,158.5,180,157.5,177.5z M171.4,81.2c0.2-1.3,0.5-2.3,1.1-3c0.6-0.7,1.2-1.3,1.9-1.7c0.7-0.4,1.5-0.5,2.4-0.5
					c1.2,0.2,2.4,0.5,3.7,1.1c1.1,0.4,2.2,0.9,3.4,1.6c1.2,0.7,2.4,1.6,3.7,2.8c1.5,1.8,2.4,3.8,2.6,6c0.1,1,0,2-0.4,2.9
					c-1.2,3.2-2.4,6.1-3.9,8.9c-1.4,2.8-2.9,5.1-4.5,7c-1.6,1.9-3.2,3.2-4.8,3.8c-1.6,0.7-3.3,0.3-4.9-1c-1.1-1-1.8-2.9-2-5.6
					c-0.2-2.8-0.2-5.7,0-8.9c0.2-3.2,0.5-6.1,0.9-8.7C171,83.2,171.3,81.7,171.4,81.2z"/>
			</g>
			<g>
				<path class="st0" d="M254,108.7c-3,7.1-6,14.2-9.1,21.5c-2.6,6.2-5.4,12.9-8.5,20.1c-3,7.3-5.9,13.9-8.5,19.8l0,0.3l-0.2,0
					l-0.2,0.4c-0.1,0.2-0.2,0.4-0.3,0.4c-0.1,0-0.2,0.1-0.3,0.4l-0.2,0c-0.4,0.5-0.8,0.7-1.3,0.7c-0.4,0-0.8,0-1.1,0.1
					c-1.1-0.2-2.3-0.5-3.8-0.9c-1.5-0.4-2.9-0.9-4.5-1.4c-0.2-0.2-0.3-0.2-0.5-0.2c-1.6-0.7-2.8-2.3-3.6-4.8
					c-0.4-0.7-0.6-1.5-0.7-2.3c-0.1-0.8-0.2-1.5-0.2-2.1c-0.1-2.9-0.2-6-0.3-9.3c0-3.3,0.1-6.9,0.6-10.7c0.4-3.8,1.2-7.9,2.3-12.3
					c1.1-4.4,2.7-9.2,4.8-14.4c-2.6,3.2-5.3,7.7-7.9,13.5c-2.3,4.8-4.7,11.3-7.2,19.4c-2.5,8.1-4.8,18.1-6.8,29.9l-0.3,1l-0.4,0.1
					c-1.5-0.3-2.9-0.6-4.3-1c-1.4-0.3-2.7-0.7-4.1-1c-2.5-1.1-3.9-3.5-4.3-7.2c-0.8-10.8-0.3-21.5,1.5-32.1
					c1.8-10.5,4.3-20.8,7.4-30.8c0.5-1.1,1.1-2.3,2-3.4c0.8-1.1,1.8-1.3,2.9-0.5c1.7,1.1,3.5,2.5,5.3,4.2c0.8,0.9,1.8,1.9,2.9,3
					c1.1,1.1,2,2.1,2.9,3l-0.7,2c-0.4,0.7-0.9,2-1.6,3.8c-1.1,3.4-2.2,6.7-3.1,10c-0.9,3.3-1.8,6.7-2.6,10.2c1-2.9,2.2-5.9,3.6-9
					c1.4-3.1,3-6.3,4.9-9.6c0.7-1.6,1.8-3.7,3.3-6.3c1.5-2.6,3.2-5.1,5-7.6c1-1.5,1.8-2.5,2.4-3c1-1.7,2.1-3,3.4-4
					c1.2-1,2.3-1.3,3.2-0.8c1.7,1.1,3.6,2.6,5.6,4.6c2,2,3.5,3.6,4.7,4.8c0.3,0.3,0.5,0.9,0.6,1.7c0.1,0.6,0,1.1-0.1,1.6
					c-0.6,1.4-1.3,3.4-2.2,6.2c-0.9,2.8-1.8,5.9-2.8,9.3c-1,3.4-1.9,7.1-2.8,11.2c-0.9,4-1.6,8-2.1,11.8c0.3-0.3,1.2-1.9,2.8-4.8
					c1.6-2.9,3.6-6.4,5.8-10.5c2.2-4.1,4.6-8.3,7-12.7c2.4-4.3,4.5-8.2,6.3-11.4L254,108.7z"/>
			</g>
			<g>
				<path class="st0" d="M273.1,152.3c-0.6-1.7-1-3.3-1.2-4.7c0-3.1,0.1-6.6,0.2-10.6c-1.6,3.4-3.2,6.7-4.9,9.9
					c-1.7,3.2-3.2,6-4.6,8.4c-1.4,2.5-2.5,4.5-3.5,6c-0.9,1.6-1.5,2.6-1.8,3c-0.4,0.7-0.7,0.9-0.8,0.5l-0.2,0l-1.8-0.2
					c-1.1-0.4-2.1-0.7-3.1-1.1c-1-0.3-2-0.6-3.1-0.8c-2.3-0.8-3.8-3-4.5-6.8c-0.8-10.8-0.3-21.5,1.5-32.1
					c1.8-10.5,4.3-20.8,7.4-30.8c0.6-1.4,1.3-2.6,2.1-3.5c0.8-1,1.8-1.1,3.1-0.3c0.8,0.5,1.6,1.1,2.5,1.8c0.9,0.7,1.7,1.6,2.6,2.4
					c0.8,0.7,1.8,1.6,3,2.8c1.2,1.2,2.2,2.2,3,3.1c-0.2,0.7-0.5,1.4-0.9,2.1c-0.6,1.2-1.1,2.4-1.4,3.7c-2.5,7-4.6,14.1-6.2,21.4
					c-1.6,7.3-2.6,14.7-3,22.3c0,1,0.3,1.2,0.9,0.6c0.7-0.7,1.6-1.9,2.7-3.8c1.1-1.9,2.4-4.4,3.8-7.5c1.4-3.1,2.8-6.4,4.2-10.1
					c1-2.1,1.9-4.2,2.7-6.5c0.8-2.2,1.6-4.5,2.4-6.7c0.5-1.3,1-3.1,1.8-5.4c0.7-2.2,1.4-4.2,1.9-6c0.1-0.4,0.2-0.8,0.3-1
					c0.1-0.2,0.2-0.6,0.3-1c0.6-1.8,1.1-3.4,1.6-5c0.5-1.6,1.1-3,1.7-4.4c0.7-2,1.4-3.7,2.1-5.1c0.9-1.6,1.7-2.3,2.4-2.1
					c0.1,0,0.2,0,0.2,0.1c0,0.1,0.1,0.1,0.2,0.1c1.7,0.9,3.6,2.3,5.5,4.3c2,2,3.5,3.7,4.5,5.1c0.5,0.5,0.8,1.1,0.8,1.7
					c0.1,0.6,0,1.1-0.3,1.6c-0.5,1.3-1.1,3.3-2,6c-0.9,2.7-1.8,5.8-2.8,9.3c-1,3.5-1.9,7.3-2.8,11.3c-0.9,4-1.6,8-2.1,11.8
					c0.1-0.4,0.9-1.9,2.3-4.4c1.4-2.5,3.2-5.5,5.3-9.2c2.1-3.6,4.2-7.7,6.5-12.1c2.3-4.4,4.4-8.8,6.3-13.1l5.4-1.1
					c-2.7,7-5.5,14.1-8.5,21.4c-2.5,6.1-5.2,12.8-8.1,19.9c-2.9,7.1-5.6,13.7-8.1,19.6l0,0.3l-0.2,0l0,0.3l-0.2,0
					c-0.2,0.5-0.4,0.7-0.6,0.7c-0.1,0-0.2,0.2-0.2,0.4c-0.5,0.5-1,0.8-1.4,0.8c-0.4,0-0.7,0-1,0.1c-1.1-0.2-2.3-0.5-3.8-0.9
					c-1.4-0.4-2.9-1-4.5-1.7c-0.3,0.1-0.4,0-0.5-0.2C275,156.2,273.8,154.7,273.1,152.3z"/>
			</g>
			<g>
				<path class="st0" d="M338.1,24.5c-0.2,1.1-0.4,2.1-0.8,3.1c-0.3,1-0.7,2.1-1,3.2c5.7-1,11.1-2,16.4-3c5.3-1,10.1-2.1,14.5-3.2
					c4.4-1.1,8.1-2.3,11.2-3.4c3.1-1.2,5.1-2.4,6.2-3.6l0.2-0.4c0.4-0.1,0.7,0,0.7,0.2c0.4,0.8,0.9,2,1.5,3.9
					c0.6,1.8,0.8,4.2,0.5,7.2c-0.2,2.5-0.8,4.5-2,5.9c-1.1,1.4-2.5,2.4-4,3c-1.6,0.6-3.3,1.2-5.3,1.6c-2,0.4-3.9,0.8-6,1.3
					c-0.9,0.2-2.5,0.5-4.8,0.8c-2.3,0.4-5.2,0.8-8.6,1.3c-3.4,0.5-7.3,1.1-11.6,1.8c-4.3,0.7-8.8,1.4-13.4,2.2
					c-0.9,3.9-2,8.4-3.2,13.4c-1.2,5-2.4,10.2-3.5,15.7c-1.1,5.4-2.2,10.9-3.2,16.5c-1,5.6-1.9,11-2.7,16.1
					c-0.3,2.4-0.7,4.8-0.9,7.3c-0.3,2.5-0.5,5-0.7,7.3c-0.1,1.7-0.3,3.3-0.4,4.9c-0.1,1.6-0.3,3.2-0.4,4.9c0.1-0.2,1-1.9,2.5-4.9
					c1.5-3,3.4-6.6,5.7-10.8c2.2-4.2,4.6-8.6,7.1-13.3c2.5-4.7,4.6-9,6.4-12.9l5.5-0.8c-2.9,7.7-5.9,15.2-9,22.7
					c-2.6,6.6-5.4,13.5-8.4,20.9c-3,7.4-5.8,14-8.3,19.9l-0.6,1.1c-0.1,0-0.3,0.1-0.3,0.2c-0.1,0.1-0.2,0.2-0.5,0.3l-0.9,0.2l0-0.3
					l-8.2-2c-1.5-0.5-2.6-1.5-3.2-2.9c-0.6-1.4-1-2.6-1.3-3.6c-0.1-0.6-0.1-1.3-0.1-2c0-0.7,0-1.5-0.1-2.3
					c-0.2-7.6-0.1-15.3,0.3-23.1c0.4-7.8,0.9-14.9,1.7-21.5c0.7-6.6,1.5-12.4,2.2-17.4c0.7-5,1.4-8.7,1.9-11.1
					c0.4-1.9,0.9-5,1.6-9.1c0.7-4.1,1.3-7.3,1.8-9.7c-4.6,1-8.2,1.8-10.7,2.6c-2.5,0.7-4.4,1.4-5.7,2.1c-1.3,0.7-2.1,1.5-2.5,2.4
					c-0.4,0.9-0.9,2.1-1.5,3.4c-0.2,0.5-0.5,0.7-0.7,0.6c-0.2-0.1-0.4-0.2-0.4-0.4c-0.8-0.9-1.7-2.3-2.7-4.3c-0.9-2-1.3-4.6-1-7.7
					c0.1-1.9,0.6-3.7,1.4-5.6c0.7-1.6,1.9-3.1,3.4-4.6c1.6-1.5,3.8-2.5,6.7-3.1c1-0.2,1.7-0.3,2.1-0.3c0.4,0,1,0.1,1.9,0.1
					c0.9,0,2.3,0,4.3-0.1c2-0.1,5.1-0.5,9.3-1.2c0.7-3.1,1.5-6.1,2.3-9.2c0.8-3.1,1.6-6.1,2.5-9.2c0.2-0.5,0.5-1,0.8-1.6
					c0.3-0.6,0.8-1.1,1.5-1.4c1.1-0.4,2.2-0.4,3.1,0.3l9,3.7c0.8,0.3,1.5,1,2.2,2.3C338.9,20.2,338.9,22.1,338.1,24.5z"/>
			</g>
			<g>
				<path class="st0" d="M349.4,137.3c1.8,0.2,3.5-0.4,5.2-1.9c1.7-1.5,3.4-3.6,5.1-6.2c1.7-2.6,3.4-5.6,5-9
					c1.6-3.3,3.1-6.7,4.5-10.1c3.3-8.2,6.5-17.4,9.6-27.8l5.5-0.8c-0.4,1.9-0.9,4.1-1.5,6.5c-1.1,4-2.8,9.8-5.3,17.6
					c-0.6,1.8-1.1,3.5-1.7,5c-0.6,1.6-1.1,3.2-1.7,5c-0.1,0.4-0.2,0.8-0.3,1.2c-0.1,0.3-0.3,0.8-0.5,1.5c-0.1,0.4-0.4,1.1-0.9,2.1
					c-0.1,0.2-0.2,0.6-0.3,1c-0.1,0.4-0.2,0.8-0.4,1.2c-0.2,0.3-0.3,0.6-0.5,0.9c-0.7,2-2.1,5.2-4.2,9.4c-2.1,4.3-4.8,7.9-8.1,10.9
					l-2,2c-0.3,0.1-0.5,0.2-0.6,0.4c-0.4,0.1-0.7,0.3-0.8,0.5c-0.7,0.4-1.4,0.7-2.1,0.9c-0.7,0.3-1.4,0.5-2.2,0.6
					c-0.7,0.2-1.5,0.3-2.4,0.3c-0.9,0.1-1.7,0.1-2.4,0c-4.9-0.6-8.5-2.9-10.8-6.8c-2.2-3.9-3.6-8.4-3.9-13.6
					c-0.4-5.2-0.1-10.6,0.8-16.2c0.9-5.6,2.2-10.5,3.8-14.8c2.1-5.8,3.9-10.3,5.5-13.4c1.6-3.1,3.4-6.1,5.5-8.8
					c0.9-1.2,1.8-2.3,2.8-3.1c0.8-0.6,1.8-1,3-1.2c1.2-0.2,2.5,0.3,3.9,1.7c1.3,1.4,2.6,2.7,3.8,3.9c1.2,1.2,2.3,2.2,3.1,3.1
					l2.7,2.9c0.3,0.3,0.6,0.9,0.8,1.7c0.2,0.8,0.4,1.7,0.4,2.9c0,1.1-0.2,2.7-0.7,4.7c-0.9,4.3-2.2,8.7-4,13
					c-0.2,0.9-0.6,1.8-1.1,2.7c-1.2,2.5-2.7,5-4.3,7.4c-2.6,3.7-5.2,6.3-7.7,7.8c-2.6,1.6-4.4,2.6-5.6,3c-0.7,4.3-0.4,7.3,1.2,9.1
					C346.1,136.1,347.5,137.1,349.4,137.3z M345.8,118.8c-0.2,1.1-0.4,1.9-0.7,2.3c3.3-2.8,5.9-6.3,7.9-10.5c2-4.3,3.3-7.3,3.8-9.1
					c0.7-1.8,1.3-3.7,1.8-5.8c0.5-2.1,0.7-3.8,0.6-5.3c-1.9,3.3-3.6,6.6-5.2,9.8c-1.3,2.8-2.8,5.8-4.4,9
					C348.1,112.5,346.8,115.7,345.8,118.8z"/>
			</g>
			<g>
				<path class="st0" d="M444.2,68.9c-3,7.1-6,14.2-9.1,21.5c-2.6,6.2-5.4,12.9-8.5,20.1c-3,7.3-5.9,13.9-8.5,19.8l0,0.3l-0.2,0
					l-0.2,0.4c-0.1,0.2-0.2,0.4-0.3,0.4c-0.1,0-0.2,0.1-0.3,0.4l-0.2,0c-0.4,0.5-0.8,0.7-1.3,0.7c-0.4,0-0.8,0-1.1,0.1
					c-1.1-0.2-2.3-0.5-3.8-0.9c-1.4-0.4-2.9-0.9-4.5-1.4c-0.2-0.2-0.3-0.2-0.5-0.2c-1.6-0.7-2.8-2.3-3.6-4.8
					c-0.4-0.7-0.6-1.5-0.7-2.3c-0.1-0.8-0.2-1.5-0.2-2.1c-0.1-2.9-0.2-6-0.3-9.3c0-3.3,0.1-6.9,0.6-10.7c0.4-3.8,1.2-7.9,2.3-12.3
					c1.1-4.4,2.7-9.2,4.8-14.4c-2.6,3.2-5.3,7.7-7.9,13.5c-2.3,4.8-4.7,11.3-7.2,19.4c-2.5,8.1-4.8,18.1-6.8,29.9l-0.3,1l-0.4,0.1
					c-1.5-0.3-2.9-0.6-4.3-1c-1.4-0.3-2.7-0.7-4.1-1c-2.5-1.1-3.9-3.5-4.3-7.2c-0.8-10.8-0.3-21.5,1.5-32.1
					c1.8-10.5,4.3-20.8,7.4-30.8c0.5-1.1,1.1-2.3,2-3.4c0.8-1.1,1.8-1.3,2.9-0.5c1.7,1.1,3.5,2.5,5.3,4.2c0.8,0.9,1.8,1.9,2.9,3
					c1.1,1.1,2,2.1,2.9,3l-0.7,2c-0.4,0.7-0.9,2-1.6,3.8c-1.1,3.4-2.2,6.7-3.1,10c-0.9,3.3-1.8,6.7-2.6,10.2c1-2.9,2.2-5.9,3.6-9
					c1.4-3.1,3-6.3,4.9-9.6c0.7-1.6,1.8-3.7,3.3-6.3c1.5-2.6,3.2-5.1,5-7.6c1-1.5,1.8-2.5,2.4-3c1-1.7,2.1-3,3.4-4
					c1.2-1,2.3-1.3,3.2-0.8c1.7,1.1,3.6,2.6,5.6,4.6c2,2,3.5,3.6,4.7,4.8c0.3,0.3,0.5,0.9,0.6,1.7c0.1,0.6,0,1.1-0.1,1.6
					c-0.6,1.4-1.3,3.4-2.2,6.2c-0.9,2.8-1.8,5.9-2.8,9.3c-1,3.4-1.9,7.1-2.8,11.2c-0.9,4-1.6,8-2.1,11.8c0.3-0.3,1.2-1.9,2.8-4.8
					c1.6-2.9,3.6-6.4,5.8-10.5c2.2-4.1,4.6-8.3,7-12.7c2.4-4.3,4.5-8.2,6.3-11.4L444.2,68.9z"/>
			</g>
		</g>
	</g>
</g>
</svg>
