<?xml version="1.0" encoding="utf-8"?>
<!-- Generator: Adobe Illustrator 22.0.1, SVG Export Plug-In . SVG Version: 6.00 Build 0)  -->
<svg version="1.1" id="Laag_1" xmlns="http://www.w3.org/2000/svg" xmlns:xlink="http://www.w3.org/1999/xlink" x="0px" y="0px"
	 viewBox="0 0 40 57.9" style="enable-background:new 0 0 40 57.9;" xml:space="preserve">
<style type="text/css">
	.st0{fill:#FFFFFF;}
</style>
<g>
	<path class="st0" d="M0.3,56.4v-6.8c0-0.6,0.2-1.2,0.7-1.7c2.2-2.2,4.6-4.7,7.1-7.5c2.5-2.7,4.2-4.6,5-5.5c2.5-2.8,4.4-4.9,5.6-6.2
		c4.9-5.5,7.4-9.6,7.4-12.2c0-1.9-0.7-3.5-2-4.7c-1.4-1.2-3.1-1.8-5.3-1.8s-3.9,0.6-5.3,1.8c-1.4,1.2-2,2.8-2,4.8v1.6
		c0,0.9-0.5,1.4-1.4,1.4H1.4c-0.9,0-1.4-0.5-1.4-1.4v-3.4c0.2-2.9,1.1-5.5,2.8-7.8s3.9-4,6.7-5.2s5.9-1.8,9.4-1.8
		c3.9,0,7.2,0.7,10.1,2.2c2.9,1.4,5,3.4,6.6,5.8s2.3,5.2,2.3,8.1c0,2.3-0.6,4.6-1.7,7c-1.1,2.4-2.9,5-5.1,7.7
		c-2.2,2.7-5.9,6.8-11.2,12.3c-0.1,0.1-1.3,1.4-3.8,4.1c-0.2,0.1-0.2,0.2-0.2,0.4c0.1,0.1,0.2,0.2,0.4,0.2h21.3
		c0.9,0,1.4,0.5,1.4,1.4v7.1c0,0.9-0.5,1.4-1.4,1.4H1.7C0.8,57.8,0.3,57.3,0.3,56.4z"/>
</g>
</svg>
