<?xml version="1.0" encoding="utf-8"?>
<!-- Generator: Adobe Illustrator 22.0.1, SVG Export Plug-In . SVG Version: 6.00 Build 0)  -->
<svg version="1.1" id="Laag_1" xmlns="http://www.w3.org/2000/svg" xmlns:xlink="http://www.w3.org/1999/xlink" x="0px" y="0px"
	 viewBox="0 0 40 57.9" style="enable-background:new 0 0 40 57.9;" xml:space="preserve">
<style type="text/css">
	.st0{fill:#FFFFFF;}
</style>
<g>
	<path class="st0" d="M40,34.2v7.5c0,0.9-0.4,1.4-1.3,1.4H36c-0.3,0-0.5,0.2-0.5,0.5v12.9c0,0.9-0.4,1.4-1.3,1.4h-8
		c-0.9,0-1.3-0.5-1.3-1.4V43.6c0-0.3-0.2-0.5-0.5-0.5H1.8c-0.9,0-1.3-0.5-1.3-1.4v-5.9c0-0.5,0.1-1.1,0.3-1.7L14.2,1.3
		c0.4-0.7,0.9-1.1,1.5-1.1h8.6c0.8,0,1.1,0.3,1.1,1l-0.2,0.7L12.9,32.2c-0.2,0.4,0,0.6,0.4,0.6h11.2c0.3,0,0.5-0.2,0.5-0.5v-9.7
		c0-0.9,0.4-1.4,1.3-1.4h8c0.9,0,1.3,0.5,1.3,1.4v9.7c0,0.3,0.2,0.5,0.5,0.5h2.7C39.5,32.8,40,33.2,40,34.2z"/>
</g>
</svg>
