<?xml version="1.0" encoding="utf-8"?>
<!-- Generator: Adobe Illustrator 22.0.1, SVG Export Plug-In . SVG Version: 6.00 Build 0)  -->
<svg version="1.1" id="Laag_1" xmlns="http://www.w3.org/2000/svg" xmlns:xlink="http://www.w3.org/1999/xlink" x="0px" y="0px"
	 viewBox="0 0 40 57.9" style="enable-background:new 0 0 40 57.9;" xml:space="preserve">
<style type="text/css">
	.st0{fill:#FFFFFF;}
</style>
<g>
	<path class="st0" d="M38.4,38.9c0,2.8-0.4,5.3-1.3,7.5c-1.2,3.5-3.4,6.2-6.6,8.3c-3.1,2-6.8,3-11.1,3c-4.1,0-7.7-1-10.9-3
		c-3.1-2-5.3-4.7-6.6-8.1c-0.5-1.1-0.9-2.4-1.1-4.1v-0.3c0-0.8,0.4-1.1,1.3-1.1h9c0.8,0,1.3,0.4,1.5,1.1c0.1,0.2,0.2,0.5,0.4,1.1
		c0.5,1.4,1.3,2.5,2.4,3.3c1.1,0.8,2.4,1.1,3.9,1.1c1.4,0,2.6-0.3,3.7-1c1-0.7,1.8-1.6,2.4-2.7c0.4-1,0.7-1.5,0.7-1.5
		c0.4-1.1,0.6-2.2,0.6-3.3c0.1-1.5-0.1-3-0.7-4.5c-0.4-1.4-1.1-2.5-2.3-3.3c-1.1-0.8-2.5-1.1-4.2-1.1c-1.4,0-2.6,0.2-3.7,0.7
		c-1.1,0.5-2,1.2-2.6,2.3c-0.4,0.7-0.9,1.1-1.6,1.1H2.2c-0.9,0-1.4-0.5-1.4-1.4V1.6c0-0.9,0.5-1.4,1.4-1.4H35c0.9,0,1.4,0.5,1.4,1.4
		v7.1c0,0.9-0.5,1.4-1.4,1.4H12.8c-0.1,0-0.2,0.1-0.3,0.2c-0.1,0.1-0.2,0.2-0.2,0.3l-0.1,11.8c0,0.2,0.1,0.4,0.2,0.4
		c0.1,0.1,0.2,0,0.4-0.1c2.5-1.5,5.3-2.3,8.4-2.3c3.8,0,7.1,1,10,2.9c2.8,1.9,4.9,4.6,6.1,7.9C38,33.8,38.4,36.4,38.4,38.9z"/>
</g>
</svg>
