<?xml version="1.0" encoding="utf-8"?>
<!-- Generator: Adobe Illustrator 22.0.1, SVG Export Plug-In . SVG Version: 6.00 Build 0)  -->
<svg version="1.1" id="Laag_1" xmlns="http://www.w3.org/2000/svg" xmlns:xlink="http://www.w3.org/1999/xlink" x="0px" y="0px"
	 viewBox="0 0 40 57.9" style="enable-background:new 0 0 40 57.9;" xml:space="preserve">
<style type="text/css">
	.st0{fill:#FFFFFF;}
</style>
<g>
	<path class="st0" d="M38.9,39c0,3.1-0.5,5.9-1.5,8.3c-1.4,3.2-3.6,5.6-6.5,7.5c-2.9,1.8-6.4,2.7-10.4,2.7c-4.1,0-7.7-0.9-10.7-2.8
		c-3-1.9-5.2-4.5-6.5-7.9c-1-2.4-1.4-5-1.4-7.9V14.8c0-2.9,0.8-5.4,2.3-7.7C5.6,5,7.8,3.2,10.5,2s5.9-1.8,9.4-1.8
		c3.5,0,6.5,0.6,9.2,1.8c2.7,1.2,4.7,2.9,6.2,5c1.5,2.2,2.2,4.7,2.2,7.5v1.8c0,0.9-0.5,1.4-1.4,1.4h-8.6c-0.4,0-0.8-0.1-1-0.2
		c-0.2-0.2-0.4-0.4-0.4-0.6v-0.8c0-1.8-0.6-3.2-1.8-4.4c-1.2-1.2-2.7-1.8-4.6-1.8c-2,0-3.6,0.6-4.8,1.8c-1.3,1.2-1.9,2.7-1.9,4.6
		v7.4c0,0.2,0.1,0.3,0.2,0.4c0.1,0.1,0.2,0,0.4-0.2c2.2-1.8,5.1-2.7,8.7-2.7c3.2,0,6.1,0.7,8.6,2.2c2.5,1.5,4.5,3.6,6,6.4
		C38.2,32.2,38.9,35.3,38.9,39z M27.6,39.2c0-2.1-0.4-3.9-1.3-5.3c-1.3-2.1-3.3-3.2-5.9-3.2c-2.9,0-4.9,1.1-6,3.3
		c-0.8,1.4-1.2,3.2-1.2,5.4c0,1.9,0.3,3.6,1,4.9c1.2,2.4,3.2,3.5,6.1,3.5c2.8,0,4.8-1.2,6-3.5C27.2,42.9,27.6,41.2,27.6,39.2z"/>
</g>
</svg>
