<?xml version="1.0" encoding="utf-8"?>
<!-- Generator: Adobe Illustrator 22.0.1, SVG Export Plug-In . SVG Version: 6.00 Build 0)  -->
<svg version="1.1" id="Laag_1" xmlns="http://www.w3.org/2000/svg" xmlns:xlink="http://www.w3.org/1999/xlink" x="0px" y="0px"
	 viewBox="0 0 40 57.9" style="enable-background:new 0 0 40 57.9;" xml:space="preserve">
<style type="text/css">
	.st0{fill:#FFFFFF;}
</style>
<g>
	<path class="st0" d="M8.8,57.4c-0.2-0.3-0.2-0.7,0-1.2l17.6-45.7c0.1-0.4,0-0.6-0.3-0.6H10.7c-0.3,0-0.5,0.2-0.5,0.5v3.3
		c0,0.9-0.5,1.4-1.4,1.4H2.1c-0.9,0-1.4-0.5-1.4-1.4L0.8,1.4C0.8,0.5,1.3,0,2.2,0h35.3c0.9,0,1.4,0.5,1.4,1.4v7.7
		c0,0.6-0.1,1.1-0.3,1.7l-17.7,46c-0.2,0.7-0.7,1.1-1.6,1.1H9.8C9.3,57.9,9,57.7,8.8,57.4z"/>
</g>
</svg>
